<?xml version="1.0" encoding="UTF-8"?>
<svg version="1.1" xmlns="http://www.w3.org/2000/svg" width="1080" height="241">
<path d="M0 0 C356.4 0 712.8 0 1080 0 C1080 79.53 1080 159.06 1080 241 C723.6 241 367.2 241 0 241 C0 161.47 0 81.94 0 0 Z " fill="#FEFEFE" transform="translate(0,0)"/>
<path d="M0 0 C1.03025299 -0.00852997 2.06050598 -0.01705994 3.12197876 -0.02584839 C4.80137291 -0.02448883 4.80137291 -0.02448883 6.51469421 -0.02310181 C7.70226318 -0.02981903 8.88983215 -0.03653625 10.11338806 -0.04345703 C13.36356548 -0.05918363 16.61358939 -0.06581115 19.86380029 -0.0670886 C21.89730114 -0.06851267 23.93077541 -0.07278714 25.96426964 -0.07808304 C33.06686979 -0.09657433 40.169395 -0.10475492 47.27201843 -0.10317993 C53.87894122 -0.10197927 60.48553694 -0.12306877 67.09237701 -0.15466726 C72.77579854 -0.18087468 78.45911355 -0.19154534 84.14259499 -0.19026911 C87.53214444 -0.18976072 90.92140318 -0.1953752 94.31089211 -0.21662521 C98.09524688 -0.23624981 101.87876305 -0.23045972 105.66313171 -0.21841431 C106.77665512 -0.22965332 107.89017853 -0.24089233 109.03744507 -0.25247192 C116.56667358 -0.19166344 121.98367339 0.92284039 127.80644226 6.04867554 C128.25245789 6.61586304 128.69847351 7.18305054 129.15800476 7.76742554 C129.85023132 8.61820679 129.85023132 8.61820679 130.55644226 9.48617554 C132.98847342 13.01804245 134.03379013 15.62448776 134.01005554 19.94418335 C134.00982895 21.32516205 134.00982895 21.32516205 134.00959778 22.73403931 C133.99927521 23.71958801 133.98895264 24.70513672 133.97831726 25.72055054 C133.97548737 26.73590881 133.97265747 27.75126709 133.96974182 28.7973938 C133.95855477 32.0375247 133.93345267 35.2773783 133.90800476 38.51742554 C133.89797306 40.71533821 133.88884754 42.91325522 133.88066101 45.11117554 C133.85862028 50.49668668 133.82515727 55.88203629 133.78300476 61.26742554 C134.58109558 61.2492981 135.3791864 61.23117065 136.20146179 61.2124939 C144.49127699 61.10230723 152.19212366 61.29107183 158.76737976 66.98617554 C162.24580221 70.89525982 163.89895712 74.07422197 163.93017578 79.38420105 C163.94090874 80.63950371 163.94090874 80.63950371 163.95185852 81.92016602 C163.95454742 82.83502777 163.95723633 83.74988953 163.96000671 84.69247437 C163.96657791 85.65863174 163.97314911 86.62478912 163.97991943 87.620224 C163.99965108 90.8216357 164.01131415 94.02300051 164.02128601 97.22445679 C164.02536154 98.3174729 164.02943707 99.41048901 164.03363609 100.53662682 C164.05449525 106.32067043 164.06879823 112.10469033 164.07817078 117.88876343 C164.08924095 123.86432036 164.12364861 129.8395055 164.16334248 135.81493092 C164.18947821 140.40888668 164.19785988 145.00275339 164.20145226 149.59677696 C164.20632527 151.79959311 164.21795949 154.0024051 164.23649025 156.2051487 C164.26081862 159.28846409 164.25992805 162.37081127 164.25297546 165.45419312 C164.27219055 166.81737671 164.27219055 166.81737671 164.29179382 168.20809937 C164.24657835 173.71255045 163.58397346 176.9948314 159.78300476 181.26742554 C155.3838091 184.71601339 152.53520169 185.76882516 146.96516418 185.78208923 C146.30414668 185.78903476 145.64312917 185.79598029 144.96208084 185.80313629 C142.76027524 185.82134574 140.55955457 185.81115995 138.35771179 185.8008728 C136.77375994 185.80793449 135.18981484 185.81668056 133.60588074 185.82698059 C129.31233655 185.84945875 125.01916127 185.84653828 120.72558069 185.83765912 C117.13719434 185.8325436 113.54887698 185.83984652 109.96049774 185.84713119 C101.49225499 185.86412583 93.02419245 185.86056951 84.55595398 185.84384155 C75.82961497 185.82692622 67.10377641 185.84274751 58.37749207 185.87506443 C50.87663362 185.90178725 43.3759307 185.90902891 35.87502944 185.90054935 C31.39897105 185.89562727 26.9232136 185.89779645 22.44719315 185.91833687 C18.23625672 185.93673601 14.02603798 185.93068418 9.81513977 185.90613747 C8.27366872 185.90114263 6.7321426 185.90458485 5.19071579 185.91728592 C-9.38940158 186.02787725 -9.38940158 186.02787725 -14.72359753 181.83006191 C-21.48335934 174.75689607 -20.7949235 166.21495451 -20.7504425 156.98226929 C-20.75750843 155.43743061 -20.76625627 153.89259886 -20.77655029 152.34777832 C-20.79897706 148.1700479 -20.79612066 143.99269752 -20.78722882 139.81492996 C-20.78210512 136.32088515 -20.78942256 132.82691089 -20.79670089 129.33287334 C-20.81367808 121.08801243 -20.81015553 112.8433367 -20.79341125 104.59848022 C-20.77648467 96.10498984 -20.7923366 87.61201321 -20.82463413 79.11857891 C-20.85135768 71.81300662 -20.85859881 64.50759398 -20.85011905 57.20197773 C-20.84519878 52.84443567 -20.84735677 48.48720275 -20.86790657 44.12969971 C-20.88630785 40.03199692 -20.88025147 35.93503155 -20.85570717 31.83736801 C-20.85071363 30.33782186 -20.85415116 28.83821907 -20.86685562 27.33871841 C-20.92973862 19.27598387 -20.91084667 12.518939 -15.21699524 6.26742554 C-10.64337366 1.92248503 -6.30024298 0.02367196 0 0 Z " fill="#CBD5DC" transform="translate(36.21699523925781,0.732574462890625)"/>
<path d="M0 0 C58.95801527 0 58.95801527 0 67.6015625 8.28515625 C73.60452673 15.64633306 74.7883597 23.7536669 74 33 C72.32826713 40.22067753 69.19052931 44.94874648 63 49 C57.7 52 57.7 52 55 52 C55.556875 52.556875 56.11375 53.11375 56.6875 53.6875 C57.450625 54.450625 58.21375 55.21375 59 56 C59.804375 56.680625 60.60875 57.36125 61.4375 58.0625 C68.54948991 66.21526892 71.1235577 78.02164528 74.3125 88.1875 C74.77086223 89.63105707 75.22984278 91.07441796 75.68945312 92.51757812 C76.80124316 96.0091998 77.90030346 99.50445974 79 103 C72.07 103 65.14 103 58 103 C57.18015625 100.61523438 56.3603125 98.23046875 55.515625 95.7734375 C54.71005352 93.44931481 53.90155551 91.12622974 53.09277344 88.80322266 C52.5350209 87.19621026 51.98028599 85.58814706 51.42871094 83.97900391 C50.63239271 81.65760691 49.8250665 79.34028634 49.015625 77.0234375 C48.77378479 76.31069672 48.53194458 75.59795593 48.28277588 74.86361694 C46.72848456 70.45718213 45.02800449 66.63319967 42 63 C34.67478504 60.27779291 34.67478504 60.27779291 21 60 C21 74.19 21 88.38 21 103 C14.07 103 7.14 103 0 103 C0 69.01 0 35.02 0 0 Z " fill="#050505" transform="translate(513,59)"/>
<path d="M0 0 C2.97571419 2.61814365 5.22894021 5.45788042 7 9 C10.28509647 7.90496784 10.70694377 7.33769988 12.6875 4.6875 C16.92856025 -0.32747635 20.73630915 -2.66448038 27.34375 -3.34375 C36.03190559 -3.56652322 41.925181 -2.66430473 49.25 2.125 C56.60626561 9.81564132 56.55151485 18.23459313 56.390625 28.44140625 C56.38314917 29.81859 56.37746259 31.19578452 56.37347412 32.57298279 C56.35832291 36.16857131 56.31913527 39.76349632 56.2746582 43.35882568 C56.23347571 47.03925607 56.21541448 50.71979542 56.1953125 54.40039062 C56.15262767 61.60059554 56.08236762 68.80011965 56 76 C49.73 76 43.46 76 37 76 C36.98541748 74.3600708 36.97083496 72.7201416 36.95581055 71.03051758 C36.89783377 64.94549771 36.82059992 58.86084811 36.73754883 52.77612305 C36.70429675 50.14272064 36.67626576 47.50924691 36.65356445 44.87573242 C36.62002471 41.09002289 36.5677068 37.30496711 36.51171875 33.51953125 C36.50532883 32.34227982 36.4989389 31.16502838 36.49235535 29.95210266 C36.47256119 28.85133896 36.45276703 27.75057526 36.43237305 26.61645508 C36.42126999 25.65048904 36.41016693 24.68452301 36.39872742 23.68928528 C35.92659083 20.50487931 34.87578691 18.59593863 33 16 C28.78496247 13.89248124 23.57881466 14.49124282 19 15 C15.5746596 16.35821041 13.70518662 18.49074174 12.123703 21.87547302 C9.96264795 28.02820678 9.53052623 33.67050768 9.48828125 40.16015625 C9.46135445 41.70587563 9.46135445 41.70587563 9.43388367 43.28282166 C9.3801234 46.54267402 9.34599518 49.80238287 9.3125 53.0625 C9.27929667 55.28582712 9.24480426 57.50913538 9.20898438 59.73242188 C9.12441669 65.15484378 9.05744263 70.57722566 9 76 C2.73 76 -3.54 76 -10 76 C-10.00410889 74.32977783 -10.00821777 72.65955566 -10.01245117 70.9387207 C-10.03422292 64.74179221 -10.08849404 58.5455004 -10.15258789 52.34887695 C-10.17856016 49.66683387 -10.19228221 46.98514307 -10.19555664 44.30297852 C-10.2048332 40.44749939 -10.24580056 36.59345998 -10.29296875 32.73828125 C-10.2890361 31.53915604 -10.28510345 30.34003082 -10.28105164 29.10456848 C-10.17729504 22.35610578 -10.17729504 22.35610578 -13.41918945 16.76635742 C-17.57121921 13.92462671 -19.92158726 13.66143915 -25 14 C-29.68170268 15.74416374 -32.21249191 17.87035839 -35 22 C-35.98103288 24.94309863 -36.15221687 26.9496903 -36.20532227 30.0222168 C-36.22526749 31.04304855 -36.24521271 32.06388031 -36.26576233 33.11564636 C-36.29083107 34.76576469 -36.29083107 34.76576469 -36.31640625 36.44921875 C-36.33718735 37.5769722 -36.35796844 38.70472565 -36.37937927 39.86665344 C-36.44482847 43.4735396 -36.50373844 47.08049929 -36.5625 50.6875 C-36.60568961 53.13086702 -36.64930404 55.57422656 -36.69335938 58.01757812 C-36.8005052 64.01164316 -36.90178591 70.00578224 -37 76 C-43.6 76 -50.2 76 -57 76 C-57 50.26 -57 24.52 -57 -2 C-50.73 -2 -44.46 -2 -38 -2 C-38 1.63 -38 5.26 -38 9 C-37.34 9 -36.68 9 -36 9 C-35.73832031 8.40445313 -35.47664062 7.80890625 -35.20703125 7.1953125 C-33.93192773 4.87619218 -32.69686616 3.57694651 -30.6875 1.875 C-30.11386719 1.37742187 -29.54023437 0.87984375 -28.94921875 0.3671875 C-20.87091063 -5.29896048 -8.55138091 -4.37441865 0 0 Z " fill="#030303" transform="translate(910,86)"/>
<path d="M0 0 C24.09 0 48.18 0 73 0 C73 21.12418372 73 21.12418372 68.98803711 25.54516602 C68.41448486 26.08713623 67.84093262 26.62910645 67.25 27.1875 C66.0448039 28.48907218 64.8430647 29.79385253 63.64453125 31.1015625 C62.72728271 32.06304199 62.72728271 32.06304199 61.79150391 33.04394531 C58.91016471 36.18993736 56.44173785 39.61447908 53.9375 43.0625 C50.0201297 48.35798903 46.00797389 53.55853304 41.875 58.6875 C38.05357299 63.43548451 34.2425608 68.18944015 30.5 73 C29.7265625 73.99 28.953125 74.98 28.15625 76 C25.87169265 79.17851457 23.9420628 82.60139011 22 86 C38.83 86 55.66 86 73 86 C73 91.61 73 97.22 73 103 C48.25 103 23.5 103 -2 103 C-2 82.11045487 -2 82.11045487 5.01953125 75.01171875 C5.75163818 74.29701416 5.75163818 74.29701416 6.49853516 73.56787109 C9.28237699 70.6609065 11.5718729 67.37340989 13.9375 64.125 C14.95779109 62.7486309 15.97992285 61.37362434 17.00390625 60 C17.5055127 59.32710937 18.00711914 58.65421875 18.52392578 57.9609375 C20.76591761 54.98249251 23.06431842 52.05030589 25.375 49.125 C25.81199219 48.57078369 26.24898438 48.01656738 26.69921875 47.44555664 C28.72347716 44.87996906 30.74987056 42.31607952 32.77783203 39.75341797 C34.66893152 37.35998752 36.55358609 34.9615887 38.4375 32.5625 C39.02901855 31.81693848 39.62053711 31.07137695 40.22998047 30.30322266 C40.79217285 29.58569824 41.35436523 28.86817383 41.93359375 28.12890625 C42.42915771 27.50056885 42.92472168 26.87223145 43.43530273 26.22485352 C45.50112474 23.28744738 47.21831711 20.11794506 49 17 C32.83 17 16.66 17 0 17 C0 11.39 0 5.78 0 0 Z " fill="#020202" transform="translate(247,59)"/>
<path d="M0 0 C6.74530662 4.7066132 10.97033971 10.61064078 13.1640625 18.53515625 C14.24747958 25.52577596 13.8636342 32.65987471 13.65625 39.7109375 C11.19463983 40.94174259 9.59128007 40.83137727 6.83935547 40.82446289 C5.83846893 40.82438736 4.8375824 40.82431183 3.80636597 40.82423401 C2.72299957 40.81907272 1.63963318 40.81391144 0.5234375 40.80859375 C-0.58353485 40.8071788 -1.6905072 40.80576385 -2.83102417 40.80430603 C-6.37695993 40.79869522 -9.92283323 40.78614087 -13.46875 40.7734375 C-15.86848867 40.76842389 -18.26822833 40.76386075 -20.66796875 40.75976562 C-26.55991725 40.74872228 -32.45182916 40.7319736 -38.34375 40.7109375 C-37.88689062 42.31794554 -37.42336466 43.92305933 -36.95703125 45.52734375 C-36.69962158 46.42138916 -36.44221191 47.31543457 -36.17700195 48.23657227 C-34.7125891 52.58518764 -32.49854499 54.87371113 -28.84375 57.5234375 C-22.28926948 59.7472791 -15.16356793 59.92556358 -8.78125 57.0234375 C-5.57153383 55.16166866 -3.87173703 53.14890831 -2.34375 49.7109375 C1.9391952 50.2588458 4.50760641 51.73526554 7.96875 54.2734375 C9.29326172 55.23443359 9.29326172 55.23443359 10.64453125 56.21484375 C11.30839844 56.70855469 11.97226563 57.20226562 12.65625 57.7109375 C8.63262781 66.36172521 3.75042569 71.06890061 -4.9296875 74.83203125 C-9.67643355 76.05401965 -14.21090983 76.07933907 -19.09375 76.0859375 C-20.0321875 76.11042969 -20.970625 76.13492188 -21.9375 76.16015625 C-32.07591553 76.20216626 -40.99205847 72.79327826 -48.34375 65.7109375 C-56.5246776 56.1854593 -59.17983175 44.92899996 -58.66015625 32.61328125 C-57.67479874 20.46053867 -53.90008899 11.89200561 -45.15625 3.3984375 C-33.0052262 -6.73078533 -13.83435743 -7.60889658 0 0 Z " fill="#050505" transform="translate(1041.34375,87.2890625)"/>
<path d="M0 0 C6.74530662 4.7066132 10.97033971 10.61064078 13.1640625 18.53515625 C14.24747958 25.52577596 13.8636342 32.65987471 13.65625 39.7109375 C11.19463983 40.94174259 9.59128007 40.83137727 6.83935547 40.82446289 C5.83846893 40.82438736 4.8375824 40.82431183 3.80636597 40.82423401 C2.72299957 40.81907272 1.63963318 40.81391144 0.5234375 40.80859375 C-0.58353485 40.8071788 -1.6905072 40.80576385 -2.83102417 40.80430603 C-6.37695993 40.79869522 -9.92283323 40.78614087 -13.46875 40.7734375 C-15.86848867 40.76842389 -18.26822833 40.76386075 -20.66796875 40.75976562 C-26.55991725 40.74872228 -32.45182916 40.7319736 -38.34375 40.7109375 C-37.88689062 42.31794554 -37.42336466 43.92305933 -36.95703125 45.52734375 C-36.69962158 46.42138916 -36.44221191 47.31543457 -36.17700195 48.23657227 C-34.7125891 52.58518764 -32.49854499 54.87371113 -28.84375 57.5234375 C-22.28926948 59.7472791 -15.16356793 59.92556358 -8.78125 57.0234375 C-5.57153383 55.16166866 -3.87173703 53.14890831 -2.34375 49.7109375 C1.9391952 50.2588458 4.50760641 51.73526554 7.96875 54.2734375 C9.29326172 55.23443359 9.29326172 55.23443359 10.64453125 56.21484375 C11.30839844 56.70855469 11.97226562 57.20226562 12.65625 57.7109375 C8.63262781 66.36172521 3.75042569 71.06890061 -4.9296875 74.83203125 C-9.67643355 76.05401965 -14.21090983 76.07933907 -19.09375 76.0859375 C-20.0321875 76.11042969 -20.970625 76.13492188 -21.9375 76.16015625 C-32.07591553 76.20216626 -40.99205847 72.79327826 -48.34375 65.7109375 C-56.5246776 56.1854593 -59.17983175 44.92899996 -58.66015625 32.61328125 C-57.67479874 20.46053867 -53.90008899 11.89200561 -45.15625 3.3984375 C-33.0052262 -6.73078533 -13.83435743 -7.60889658 0 0 Z " fill="#050505" transform="translate(661.34375,87.2890625)"/>
<path d="M0 0 C6.4227515 6.16006228 9.59342094 13.61756122 9.79296875 22.4921875 C9.78903204 24.18234777 9.77454873 25.87251343 9.75 27.5625 C9.7490332 28.861875 9.7490332 28.861875 9.74804688 30.1875 C9.70319283 36.54680717 9.70319283 36.54680717 8.5625 37.6875 C6.99702952 37.78076716 5.42737228 37.80495582 3.85913086 37.80102539 C2.85816879 37.80094986 1.85720673 37.80087433 0.82591248 37.80079651 C-0.2626152 37.79563522 -1.35114288 37.79047394 -2.47265625 37.78515625 C-3.58104355 37.7837413 -4.68943085 37.78232635 -5.83140564 37.78086853 C-9.38763069 37.77525033 -12.94379383 37.76269475 -16.5 37.75 C-18.90429597 37.74498734 -21.30859292 37.74042403 -23.71289062 37.73632812 C-29.62111504 37.72527499 -35.5293031 37.70851917 -41.4375 37.6875 C-41.13457031 38.95078125 -40.83164062 40.2140625 -40.51953125 41.515625 C-40.26393433 42.58151855 -40.26393433 42.58151855 -40.00317383 43.66894531 C-38.56523105 48.80011101 -35.7293471 51.68320703 -31.4375 54.6875 C-25.92544266 56.52485245 -19.43598059 56.87737325 -13.9765625 54.7109375 C-10.43338541 52.56395659 -7.58133517 50.30522184 -5.4375 46.6875 C-1.86709697 47.34652299 0.73982255 48.84979158 3.8125 50.75 C4.70453125 51.29785156 5.5965625 51.84570312 6.515625 52.41015625 C7.19109375 52.83167969 7.8665625 53.25320312 8.5625 53.6875 C7.73540879 59.56903748 4.92817962 62.80776677 0.5625 66.6875 C-7.34154181 71.5542852 -13.86279834 72.90977089 -23 73 C-23.95197266 73.02900391 -24.90394531 73.05800781 -25.88476562 73.08789062 C-36.76221136 73.18415121 -44.41590282 69.66213137 -52.23828125 62.18359375 C-61.77550106 51.35893396 -62.25998027 37.69813555 -61.62841797 24.00292969 C-60.90208822 15.1940917 -56.59083735 7.87696261 -50.4375 1.6875 C-36.28903448 -9.62156506 -14.60571365 -11.94279348 0 0 Z " fill="#040404" transform="translate(393.4375,90.3125)"/>
<path d="M0 0 C0.92108047 -0.0071553 1.84216095 -0.01431061 2.79115295 -0.02168274 C3.80468842 -0.02437164 4.81822388 -0.02706055 5.86247253 -0.02983093 C6.92762589 -0.03640213 7.99277924 -0.04297333 9.09020996 -0.04974365 C12.62652144 -0.06950704 16.16279042 -0.08114552 19.69914246 -0.09111023 C21.50740289 -0.09722352 21.50740289 -0.09722352 23.35219383 -0.10346031 C29.7315949 -0.12433318 36.11097437 -0.13863012 42.49040222 -0.147995 C49.08822721 -0.15906705 55.68571563 -0.19347308 62.28342152 -0.23316669 C67.34914794 -0.25927824 72.41479348 -0.26768195 77.48058128 -0.27127647 C79.91309064 -0.27615589 82.34559608 -0.28780811 84.77803993 -0.30631447 C88.18015548 -0.33059088 91.58139114 -0.32976161 94.98356628 -0.32279968 C95.99102905 -0.33560974 96.99849182 -0.3484198 98.03648376 -0.36161804 C102.42530206 -0.32883284 104.91391465 -0.28452046 108.71920776 2.05154419 C112.45419602 6.17564315 111.90491062 10.12854448 111.99211121 15.45967102 C112.04818542 16.74261047 112.04818542 16.74261047 112.10539246 18.0514679 C112.16881491 22.60026707 112.12245661 24.50602432 109.21867371 28.19013977 C105.88055441 30.70124753 104.32394658 31.27268548 100.23422241 31.30107117 C98.8526017 31.31397186 98.8526017 31.31397186 97.44306946 31.32713318 C96.429534 31.33139313 95.41599854 31.33565308 94.37174988 31.34004211 C93.30659653 31.3482196 92.24144318 31.35639709 91.14401245 31.36482239 C87.6077074 31.38970133 84.07144253 31.40619798 80.53507996 31.42060852 C79.329573 31.4259322 78.12406605 31.43125587 76.88202858 31.43674088 C70.50263224 31.46348206 64.12325556 31.48285476 57.74382019 31.49726868 C51.14591807 31.51392774 44.54851436 31.55871404 37.9508009 31.60964012 C32.88507495 31.64325096 27.81946825 31.65483936 22.75364113 31.66049576 C20.32111612 31.66722419 17.88859939 31.68248719 15.45618248 31.70638657 C12.0539237 31.73791015 8.65302185 31.73809359 5.25065613 31.73066711 C3.73946198 31.75527512 3.73946198 31.75527512 2.19773865 31.78038025 C-2.48108522 31.73850931 -4.66251485 31.69265234 -8.48498535 28.79820251 C-11.69707344 24.31149023 -11.65879583 20.10517407 -11.75788879 14.77217102 C-11.79527161 14.0167804 -11.83265442 13.26138977 -11.87117004 12.48310852 C-11.93872875 8.18937756 -11.78118254 6.64147042 -8.98445129 3.17060852 C-5.65184669 0.57858272 -4.12612097 0.02196315 0 0 Z " fill="#99AAB5" transform="translate(42.38288879394531,15.852828979492188)"/>
<path d="M0 0 C2.40503416 -0.02878591 4.80972006 -0.04981342 7.21484375 -0.06640625 C8.23064514 -0.07976013 8.23064514 -0.07976013 9.26696777 -0.09338379 C15.43020829 -0.12525939 20.07769377 0.2772345 24.7734375 4.65234375 C28.34452092 8.61741994 30.11521507 11.68139063 30.14717102 17.11677551 C30.15432632 17.95364395 30.16148163 18.79051239 30.16885376 19.65274048 C30.17288712 21.02503311 30.17288712 21.02503311 30.17700195 22.42504883 C30.18357315 23.39120621 30.19014435 24.35736359 30.19691467 25.35279846 C30.21664632 28.55421016 30.22830939 31.75557498 30.23828125 34.95703125 C30.24235678 36.05004736 30.2464323 37.14306347 30.25063133 38.26920128 C30.27149049 44.0532449 30.28579347 49.83726479 30.29516602 55.62133789 C30.30623619 61.59689482 30.34064385 67.57207997 30.38033772 73.54750538 C30.40647344 78.14146114 30.41485511 82.73532785 30.41844749 87.32935143 C30.42332051 89.53216758 30.43495473 91.73497956 30.45348549 93.93772316 C30.47781386 97.02103855 30.47692328 100.10338573 30.4699707 103.18676758 C30.48278076 104.09555664 30.49559082 105.0043457 30.50878906 105.94067383 C30.46347336 111.45732701 29.69851192 114.63336945 26 119 C20.77319926 123.05956774 15.35054139 122.7658512 9 122 C3.89230965 119.67017633 1.99954354 117.16589424 0 112 C-0.41875821 108.34298662 -0.37924468 104.71489719 -0.34057617 101.03759766 C-0.34101425 99.94432159 -0.34145233 98.85104553 -0.34190369 97.72463989 C-0.33981828 94.1209307 -0.31649815 90.51769015 -0.29296875 86.9140625 C-0.28737193 84.41157282 -0.28310224 81.90907984 -0.28010559 79.40658569 C-0.26983233 73.49932667 -0.24620236 67.59221731 -0.21605712 61.68503511 C-0.17917476 54.29656365 -0.16310932 46.90807125 -0.14648438 39.51953125 C-0.1143317 26.34626921 -0.06372145 13.17314522 0 0 Z " fill="#99AAB5" transform="translate(170,63)"/>
<path d="M0 0 C5.67332785 3.5909828 8.4953883 8.30476651 10.4881897 14.59860229 C11.68415653 20.04416833 11.4479665 25.55659535 11.37890625 31.10546875 C11.37466141 32.40230087 11.37041656 33.699133 11.36604309 35.03526306 C11.35468648 38.45317506 11.32530105 41.87069367 11.29193115 45.28845215 C11.26102983 48.78795046 11.24749527 52.28751344 11.23242188 55.78710938 C11.20042034 62.63168654 11.14772983 69.47594003 11.0859375 76.3203125 C4.4859375 76.3203125 -2.1140625 76.3203125 -8.9140625 76.3203125 C-8.91817139 74.65009033 -8.92228027 72.97986816 -8.92651367 71.2590332 C-8.94828542 65.06210471 -9.00255654 58.8658129 -9.06665039 52.66918945 C-9.09262266 49.98714637 -9.10634471 47.30545557 -9.10961914 44.62329102 C-9.1188957 40.76781189 -9.15986306 36.91377248 -9.20703125 33.05859375 C-9.2030986 31.85946854 -9.19916595 30.66034332 -9.19511414 29.42488098 C-9.09827177 22.69886088 -9.09827177 22.69886088 -12.25170898 17.06787109 C-17.37778122 13.70313702 -23.0494018 14.36309202 -28.9140625 15.3203125 C-33.94721697 17.79590314 -36.10454999 21.1193039 -37.9140625 26.3203125 C-38.23522741 28.84099912 -38.23522741 28.84099912 -38.23291016 31.4777832 C-38.25277985 32.47844315 -38.27264954 33.47910309 -38.29312134 34.51008606 C-38.30467255 35.5779686 -38.31622375 36.64585114 -38.328125 37.74609375 C-38.34749115 38.84882126 -38.3668573 39.95154877 -38.3868103 41.08769226 C-38.44649173 44.60265416 -38.49294625 48.11764901 -38.5390625 51.6328125 C-38.57725276 54.01889433 -38.6163051 56.40496253 -38.65625 58.79101562 C-38.7521841 64.63400361 -38.83625784 70.47705612 -38.9140625 76.3203125 C-45.5140625 76.3203125 -52.1140625 76.3203125 -58.9140625 76.3203125 C-58.9140625 50.5803125 -58.9140625 24.8403125 -58.9140625 -1.6796875 C-52.6440625 -1.6796875 -46.3740625 -1.6796875 -39.9140625 -1.6796875 C-39.9140625 2.2803125 -39.9140625 6.2403125 -39.9140625 10.3203125 C-39.2540625 10.3203125 -38.5940625 10.3203125 -37.9140625 10.3203125 C-37.6871875 9.7634375 -37.4603125 9.2065625 -37.2265625 8.6328125 C-29.72786193 -4.57918375 -12.87119692 -6.11488757 0 0 Z " fill="#060606" transform="translate(478.9140625,85.6796875)"/>
<path d="M0 0 C6.6 0 13.2 0 20 0 C20.01981934 1.67545898 20.03963867 3.35091797 20.06005859 5.07714844 C20.1360685 11.28693806 20.22479339 17.49649195 20.31738281 23.70605469 C20.35678011 26.3948189 20.39136788 29.0835815 20.421875 31.77246094 C20.46748377 35.63495331 20.52548615 39.49708997 20.5859375 43.359375 C20.59748871 44.5636615 20.60903992 45.767948 20.62094116 47.00872803 C20.64081085 48.12958801 20.66068054 49.250448 20.68115234 50.40527344 C20.69447601 51.39122498 20.70779968 52.37717651 20.7215271 53.39300537 C21.00917177 56.08586386 21.55823098 57.72419992 23 60 C27.28948344 62.88414946 32.0298013 62.61171676 37 62 C41.08438268 60.66384507 43.53431957 58.729566 45.875 55.0625 C47.46791727 50.72622521 48.11839078 46.7252884 48.20532227 42.11791992 C48.2352401 40.70702339 48.2352401 40.70702339 48.26576233 39.2676239 C48.29083107 37.7642321 48.29083107 37.7642321 48.31640625 36.23046875 C48.33718735 35.19432938 48.35796844 34.15819 48.37937927 33.09065247 C48.4446213 29.78966735 48.50364179 26.48860451 48.5625 23.1875 C48.60570932 20.94595559 48.64932438 18.70441897 48.69335938 16.46289062 C48.80027671 10.97533952 48.90161538 5.48771045 49 0 C55.6 0 62.2 0 69 0 C69 25.74 69 51.48 69 78 C62.73 78 56.46 78 50 78 C50 74.04 50 70.08 50 66 C49.34 66 48.68 66 48 66 C47.7215625 67.051875 47.7215625 67.051875 47.4375 68.125 C45.1229473 72.75410539 41.36530858 75.74077097 36.828125 78.15625 C32.87911869 79.33440658 29.1618101 79.32923188 25.0625 79.3125 C24.27681641 79.32861328 23.49113281 79.34472656 22.68164062 79.36132812 C16.35895761 79.36661907 12.26222781 77.93905241 7.375 73.75 C2.07503483 67.61319823 -0.13050279 62.11932708 -0.11352539 54.03808594 C-0.11344986 52.83714294 -0.11337433 51.63619995 -0.11329651 50.39886475 C-0.10813522 49.10708313 -0.10297394 47.81530151 -0.09765625 46.484375 C-0.09579017 45.14487765 -0.09436716 43.80537962 -0.09336853 42.46588135 C-0.08955835 38.94777528 -0.07974091 35.42971079 -0.06866455 31.91162109 C-0.05841817 28.31869061 -0.053864 24.72575339 -0.04882812 21.1328125 C-0.03811725 14.08852308 -0.02053262 7.04426863 0 0 Z " fill="#060606" transform="translate(762,84)"/>
<path d="M0 0 C0.90136185 -0.01283524 1.80272369 -0.02567047 2.73139954 -0.03889465 C4.18923103 -0.04997505 4.18923103 -0.04997505 5.67651367 -0.0612793 C7.18032845 -0.07338692 7.18032845 -0.07338692 8.71452332 -0.08573914 C10.83700841 -0.09957168 12.95951566 -0.11029754 15.08203125 -0.11816406 C18.32163803 -0.13537667 21.56022418 -0.1792708 24.79956055 -0.22338867 C26.86270409 -0.23351592 28.9258563 -0.24203192 30.98901367 -0.2487793 C31.95482864 -0.26628738 32.92064362 -0.28379547 33.91572571 -0.30183411 C39.60154163 -0.28357115 43.12396222 0.20275782 47.53198242 4.17700195 C50.26831978 7.7067094 49.85516491 11.94502529 49.86791992 16.23168945 C49.87457672 17.01085724 49.88123352 17.79002502 49.88809204 18.59280396 C49.89819984 20.23852179 49.90290964 21.88428045 49.90258789 23.5300293 C49.90695584 26.03674519 49.94327759 28.54169173 49.98120117 31.0480957 C49.98707098 32.6509543 49.99103928 34.25382121 49.99291992 35.85668945 C50.00729095 36.60062958 50.02166199 37.3445697 50.03646851 38.11105347 C49.99155227 43.27465575 48.93638778 46.29363599 45.53198242 50.17700195 C40.96512568 53.13381741 35.20271295 52.51947972 29.93823242 52.5480957 C28.91395142 52.55712418 27.88967041 52.56615265 26.83435059 52.57545471 C24.6725557 52.58993708 22.51071718 52.59883893 20.34887695 52.60253906 C17.04327873 52.61446121 13.73953217 52.6636896 10.43432617 52.71411133 C8.33147068 52.7235731 6.22860375 52.73080931 4.12573242 52.7355957 C3.13915649 52.75512802 2.15258057 52.77466034 1.1361084 52.79478455 C-3.54396194 52.76401608 -5.74377828 52.72548658 -9.56762695 49.82958984 C-14.02143956 43.6129051 -12.76808834 35.35476042 -12.81811523 27.98999023 C-12.83468485 26.2014465 -12.86198837 24.41296926 -12.90014648 22.62475586 C-12.95497344 20.04026098 -12.97679452 17.45731286 -12.99145508 14.87231445 C-13.01412445 14.07632843 -13.03679382 13.28034241 -13.06015015 12.4602356 C-13.04405909 8.22169249 -12.83746914 6.64660466 -10.12280273 3.19604492 C-6.67671722 0.57519452 -4.20791024 0.05227434 0 0 Z " fill="#56ACED" transform="translate(43.468017578125,56.822998046875)"/>
<path d="M0 0 C2.77985863 1.87766398 5.42907936 3.84559723 8 6 C6.52278578 9.45201639 4.56205999 11.64961936 1.875 14.25 C1.15054688 14.95640625 0.42609375 15.6628125 -0.3203125 16.390625 C-0.87460937 16.92171875 -1.42890625 17.4528125 -2 18 C-5.05768208 16.83366766 -7.81774179 15.5445148 -10.625 13.875 C-15.51600708 11.39230249 -20.6226295 11.07315509 -26 12 C-28.33185932 13.19616797 -28.33185932 13.19616797 -30 15 C-30.66666667 18.5 -30.66666667 18.5 -30 22 C-26.68760205 25.47377119 -22.39710815 26.01687859 -17.875 26.9375 C-7.65017246 29.18843951 1.42275119 31.43307578 8.3125 39.8125 C11.38646003 45.68211915 10.86627197 52.62290558 10 59 C7.73145775 65.39993853 4.07338025 69.68373795 -1.77734375 73.0625 C-12.4647336 77.57036215 -27.26197867 78.10513378 -38.3125 74.375 C-43.78740931 71.90780361 -49.66748594 68.95209706 -52.21484375 63.30859375 C-52.47394531 62.54675781 -52.73304688 61.78492188 -53 61 C-51.21427748 59.16052663 -49.42197551 57.32842259 -47.625 55.5 C-47.11710938 54.97535156 -46.60921875 54.45070312 -46.0859375 53.91015625 C-44.76167396 52.56846819 -43.38394135 51.28004185 -42 50 C-41.34 50 -40.68 50 -40 50 C-39.401875 50.763125 -38.80375 51.52625 -38.1875 52.3125 C-34.31241371 57.0733203 -29.92478595 58.71629638 -24 60 C-19.17122724 60.4003551 -15.23279954 60.61898708 -11 58 C-9.44061022 54.88122044 -9.6392166 52.42744229 -10 49 C-14.15390863 45.63691566 -19.10366499 44.85996659 -24.1875 43.6875 C-32.87363515 41.53930715 -40.05094654 38.94905346 -46.5 32.5 C-50.0586905 26.56884916 -50.83217517 20.80487548 -50 14 C-47.87570615 6.8002975 -43.17826548 2.61751261 -36.9921875 -1.2578125 C-26.42364725 -6.52367053 -10.06678207 -6.20941698 0 0 Z " fill="#040404" transform="translate(737,87)"/>
<path d="M0 0 C0.98424454 -0.00701431 1.96848907 -0.01402863 2.9825592 -0.02125549 C4.06109665 -0.01361176 5.13963409 -0.00596802 6.25085449 0.00190735 C7.38764145 -0.00174332 8.52442841 -0.00539398 9.69566345 -0.00915527 C13.46356011 -0.01727926 17.23102921 -0.00363484 20.99890137 0.01094055 C23.6105957 0.01145893 26.22229043 0.01094208 28.83398438 0.00942993 C34.31169771 0.00854689 39.7892873 0.01962928 45.26696777 0.03804016 C51.60120488 0.05920801 57.9352607 0.06271775 64.269526 0.0564782 C70.36122485 0.05078466 76.45284957 0.05653434 82.54454041 0.06765175 C85.13776899 0.07150895 87.73100304 0.07264982 90.32423401 0.0710659 C93.94441213 0.07069625 97.56431183 0.08328767 101.18444824 0.0995636 C102.26298569 0.09708618 103.34152313 0.09460876 104.45274353 0.09205627 C105.43698807 0.09914108 106.4212326 0.10622589 107.43530273 0.11352539 C108.71950733 0.1166047 108.71950733 0.1166047 110.02965546 0.11974621 C112.21765137 0.3742218 112.21765137 0.3742218 115.21765137 2.3742218 C115.53015137 5.3742218 115.53015137 5.3742218 115.21765137 8.3742218 C112.71275561 10.87911756 111.93280203 10.62520097 108.47290039 10.62818909 C107.47175705 10.63382874 106.47061371 10.63946838 105.43913269 10.64527893 C104.33672745 10.64123047 103.2343222 10.63718201 102.09851074 10.63301086 C100.3618792 10.63826782 100.3618792 10.63826782 98.59016418 10.64363098 C94.747183 10.65246363 90.90438456 10.64659365 87.06140137 10.6398468 C84.40103932 10.64119301 81.74068291 10.64312983 79.08032227 10.64564514 C73.49831141 10.6492864 67.91635342 10.64448154 62.33435059 10.63496399 C55.87572222 10.6240791 49.41722011 10.62760457 42.9585948 10.6386168 C37.4188553 10.64768517 31.87915387 10.64897717 26.33940935 10.64373946 C23.02834679 10.64061726 19.71735678 10.64099945 16.40629578 10.64681244 C12.71637323 10.65186824 9.02669616 10.64418057 5.33679199 10.63301086 C4.23438675 10.63705933 3.13198151 10.64110779 1.99617004 10.64527893 C0.9950267 10.63963928 -0.00611664 10.63399963 -1.03759766 10.62818909 C-2.3472562 10.62705801 -2.3472562 10.62705801 -3.6833725 10.62590408 C-5.78234863 10.3742218 -5.78234863 10.3742218 -7.78234863 8.3742218 C-8.14054965 5.58025387 -8.27510351 4.03496434 -6.56171417 1.73745441 C-4.24364729 -0.03849567 -2.90388317 -0.00056895 0 0 Z " fill="#99AAB5" transform="translate(38.7823486328125,159.6257781982422)"/>
<path d="M0 0 C1.00114334 -0.00563965 2.00228668 -0.0112793 3.0337677 -0.01708984 C4.13617294 -0.01304138 5.23857819 -0.00899292 6.37438965 -0.00482178 C7.53214401 -0.00832642 8.68989838 -0.01183105 9.88273621 -0.01544189 C13.72571739 -0.02427454 17.56851583 -0.01840456 21.41149902 -0.01165771 C24.07186108 -0.01300392 26.73221748 -0.01494074 29.39257812 -0.01745605 C34.97458899 -0.02109731 40.55654697 -0.01629246 46.1385498 -0.0067749 C52.59717817 0.00410999 59.05568028 0.00058452 65.51430559 -0.01042771 C71.05404509 -0.01949608 76.59374652 -0.02078809 82.13349104 -0.01555037 C85.44455361 -0.01242817 88.75554361 -0.01281036 92.06660461 -0.01862335 C95.75652716 -0.02367916 99.44620423 -0.01599149 103.1361084 -0.00482178 C104.23851364 -0.00887024 105.34091888 -0.0129187 106.47673035 -0.01708984 C107.47787369 -0.0114502 108.47901703 -0.00581055 109.51049805 0 C110.82015659 0.00113108 110.82015659 0.00113108 112.15627289 0.002285 C114.25524902 0.25396729 114.25524902 0.25396729 116.25524902 2.25396729 C116.56774902 5.25396729 116.56774902 5.25396729 116.25524902 8.25396729 C113.03250353 10.40246428 112.18343425 10.50576647 108.47290039 10.5146637 C107.48865585 10.5217485 106.50441132 10.52883331 105.49034119 10.53613281 C104.41180374 10.5336554 103.3332663 10.53117798 102.2220459 10.52862549 C101.08525894 10.53373642 99.94847198 10.53884735 98.77723694 10.54411316 C95.00943782 10.55804417 91.24182087 10.55704988 87.47399902 10.55474854 C84.86230399 10.5586332 82.25060959 10.56296739 79.63891602 10.56773376 C74.16123837 10.57594899 68.68361229 10.57503688 63.20593262 10.56964111 C56.87165995 10.5635976 50.53760919 10.57592136 44.20337439 10.59721118 C38.11167794 10.61693391 32.02008547 10.62000312 25.92835999 10.61647606 C23.33512348 10.61699078 20.74188354 10.62225654 18.14866638 10.63228798 C14.52841911 10.64457406 10.90869063 10.63790773 7.28845215 10.62628174 C6.2099147 10.63392548 5.13137726 10.64156921 4.02015686 10.64944458 C2.54379005 10.63892311 2.54379005 10.63892311 1.03759766 10.62818909 C-0.24660694 10.6284407 -0.24660694 10.6284407 -1.55675507 10.6286974 C-4.24161582 10.16887105 -5.13169872 9.41693369 -6.74475098 7.25396729 C-7.05725098 4.69146729 -7.05725098 4.69146729 -6.74475098 2.25396729 C-4.23985522 -0.25092847 -3.45990164 0.00298812 0 0 Z " fill="#9AAAB5" transform="translate(37.7447509765625,139.74603271484375)"/>
<path d="M0 0 C0.98424454 -0.00701431 1.96848907 -0.01402863 2.9825592 -0.02125549 C4.06109665 -0.01361176 5.13963409 -0.00596802 6.25085449 0.00190735 C7.38764145 -0.00174332 8.52442841 -0.00539398 9.69566345 -0.00915527 C13.46356011 -0.01727926 17.23102921 -0.00363484 20.99890137 0.01094055 C23.6105957 0.01145893 26.22229043 0.01094208 28.83398438 0.00942993 C34.31169771 0.00854689 39.7892873 0.01962928 45.26696777 0.03804016 C51.60120488 0.05920801 57.9352607 0.06271775 64.269526 0.0564782 C70.36122485 0.05078466 76.45284957 0.05653434 82.54454041 0.06765175 C85.13776899 0.07150895 87.73100304 0.07264982 90.32423401 0.0710659 C93.94441213 0.07069625 97.56431183 0.08328767 101.18444824 0.0995636 C102.26298569 0.09708618 103.34152313 0.09460876 104.45274353 0.09205627 C105.43698807 0.09914108 106.4212326 0.10622589 107.43530273 0.11352539 C108.71950733 0.1166047 108.71950733 0.1166047 110.02965546 0.11974621 C112.21765137 0.3742218 112.21765137 0.3742218 115.21765137 2.3742218 C115.53015137 5.3742218 115.53015137 5.3742218 115.21765137 8.3742218 C112.71275561 10.87911756 111.93280203 10.62520097 108.47290039 10.62818909 C107.47175705 10.63382874 106.47061371 10.63946838 105.43913269 10.64527893 C104.33672745 10.64123047 103.2343222 10.63718201 102.09851074 10.63301086 C100.3618792 10.63826782 100.3618792 10.63826782 98.59016418 10.64363098 C94.747183 10.65246363 90.90438456 10.64659365 87.06140137 10.6398468 C84.40103932 10.64119301 81.74068291 10.64312983 79.08032227 10.64564514 C73.49831141 10.6492864 67.91635342 10.64448154 62.33435059 10.63496399 C55.87572222 10.6240791 49.41722011 10.62760457 42.9585948 10.6386168 C37.4188553 10.64768517 31.87915387 10.64897717 26.33940935 10.64373946 C23.02834679 10.64061726 19.71735678 10.64099945 16.40629578 10.64681244 C12.71637323 10.65186824 9.02669616 10.64418057 5.33679199 10.63301086 C4.23438675 10.63705933 3.13198151 10.64110779 1.99617004 10.64527893 C0.9950267 10.63963928 -0.00611664 10.63399963 -1.03759766 10.62818909 C-2.3472562 10.62705801 -2.3472562 10.62705801 -3.6833725 10.62590408 C-5.78234863 10.3742218 -5.78234863 10.3742218 -7.78234863 8.3742218 C-8.14054965 5.58025387 -8.27510351 4.03496434 -6.56171417 1.73745441 C-4.24364729 -0.03849567 -2.90388317 -0.00056895 0 0 Z " fill="#99AAB5" transform="translate(38.7823486328125,118.62577819824219)"/>
<path d="M0 0 C3.485625 -0.061875 6.97125 -0.12375 10.5625 -0.1875 C12.18973999 -0.22846802 12.18973999 -0.22846802 13.84985352 -0.27026367 C19.70347237 -0.32034062 23.8656211 0.11191187 29 3 C32.12690484 6.36743598 33.25532458 8.99115832 33.4375 13.5 C33.15538099 18.91486479 31.70241403 22.43661645 27.65625 26.15234375 C22.84941547 29.23953578 17.11338047 28.41678419 11.625 28.25 C7.78875 28.1675 3.9525 28.085 0 28 C0 18.76 0 9.52 0 0 Z " fill="#FBFBFB" transform="translate(534,75)"/>
<path d="M0 0 C0.89102417 -0.00945648 1.78204834 -0.01891296 2.70007324 -0.02865601 C3.65949829 -0.02258331 4.61892334 -0.01651062 5.60742188 -0.01025391 C6.59488403 -0.01312408 7.58234619 -0.01599426 8.59973145 -0.01895142 C10.68774997 -0.02099316 12.77578758 -0.01545565 14.86376953 -0.00292969 C18.06391071 0.01312209 21.26278884 -0.002775 24.46289062 -0.02197266 C26.49023717 -0.01999024 28.51758293 -0.01614661 30.54492188 -0.01025391 C31.98405945 -0.01936295 31.98405945 -0.01936295 33.45227051 -0.02865601 C34.78880676 -0.01447128 34.78880676 -0.01447128 36.15234375 0 C37.32790833 0.00358017 37.32790833 0.00358017 38.52722168 0.00723267 C41.10863532 0.48718182 41.99807293 1.32278964 43.57617188 3.38818359 C43.95117188 5.88818359 43.95117188 5.88818359 43.57617188 8.38818359 C41.99807293 10.45357755 41.10863532 11.28918536 38.52722168 11.76913452 C37.3516571 11.77271469 37.3516571 11.77271469 36.15234375 11.77636719 C35.26131958 11.78582367 34.37029541 11.79528015 33.45227051 11.80502319 C32.49284546 11.7989505 31.53342041 11.79287781 30.54492188 11.78662109 C29.55745972 11.78949127 28.56999756 11.79236145 27.5526123 11.7953186 C25.46459378 11.79736034 23.37655617 11.79182284 21.28857422 11.77929688 C18.08843304 11.7632451 14.88955491 11.77914219 11.68945312 11.79833984 C9.66210658 11.79635743 7.63476082 11.7925138 5.60742188 11.78662109 C4.1682843 11.79573013 4.1682843 11.79573013 2.70007324 11.80502319 C1.36353699 11.79083847 1.36353699 11.79083847 0 11.77636719 C-0.78370972 11.77398041 -1.56741943 11.77159363 -2.37487793 11.76913452 C-4.95629157 11.28918536 -5.84572918 10.45357755 -7.42382812 8.38818359 C-7.79882812 5.88818359 -7.79882812 5.88818359 -7.42382812 3.38818359 C-5.1847529 0.45771307 -3.62390833 0.01103658 0 0 Z " fill="#9CACB7" transform="translate(110.423828125,97.61181640625)"/>
<path d="M0 0 C0.8910997 -0.00630432 1.7821994 -0.01260864 2.70030212 -0.019104 C4.14718163 -0.01303131 4.14718163 -0.01303131 5.62329102 -0.00683594 C7.10660667 -0.00970612 7.10660667 -0.00970612 8.61988831 -0.01263428 C10.71387994 -0.01399691 12.80788 -0.01029502 14.90185547 -0.00195312 C18.11062593 0.00873387 21.31883506 -0.00184003 24.52758789 -0.01464844 C26.55949017 -0.01332663 28.5913921 -0.01076381 30.62329102 -0.00683594 C32.06713417 -0.01290863 32.06713417 -0.01290863 33.54014587 -0.019104 C34.43439774 -0.01279968 35.3286496 -0.00649536 36.25 0 C37.03672592 0.00159119 37.82345184 0.00318237 38.63401794 0.00482178 C40.68969727 0.25878906 40.68969727 0.25878906 43.68969727 2.25878906 C44.34403919 7.3844675 44.34403919 7.3844675 42.44274902 9.92494202 C40.23446005 11.60516606 39.02254069 11.64383699 36.26586914 11.6628418 C35.37484497 11.67552597 34.4838208 11.68821014 33.5657959 11.70127869 C32.60637085 11.69834305 31.6469458 11.69540741 30.65844727 11.69238281 C29.67098511 11.69762466 28.68352295 11.70286652 27.6661377 11.70826721 C25.57813457 11.71469142 23.49009527 11.71334527 21.40209961 11.70483398 C18.20173965 11.69632109 15.00316217 11.72508515 11.80297852 11.75683594 C9.7756353 11.7584479 7.74828892 11.75787052 5.72094727 11.75488281 C4.28180969 11.77173378 4.28180969 11.77173378 2.81359863 11.78892517 C1.92257446 11.77954422 1.03155029 11.77016327 0.11352539 11.76049805 C-0.67018433 11.76033188 -1.45389404 11.76016571 -2.26135254 11.75999451 C-4.31030273 11.25878906 -4.31030273 11.25878906 -6.09851074 9.39149475 C-7.31030273 7.25878906 -7.31030273 7.25878906 -7.12280273 4.63378906 C-5.70592756 0.49215394 -4.09566685 0.00829205 0 0 Z " fill="#9CACB7" transform="translate(110.310302734375,56.7412109375)"/>
<path d="M0 0 C0.91434814 -0.00637985 1.82869629 -0.0127597 2.77075195 -0.01933289 C3.76034912 -0.02044571 4.74994629 -0.02155853 5.76953125 -0.02270508 C6.78297607 -0.02603348 7.7964209 -0.02936188 8.84057617 -0.03279114 C10.98583522 -0.03785948 13.13110216 -0.04019949 15.27636719 -0.04003906 C18.56849047 -0.04222733 21.86027973 -0.06038901 25.15234375 -0.0793457 C27.23307177 -0.08227921 29.31380138 -0.08426429 31.39453125 -0.08520508 C32.38412842 -0.09239059 33.37372559 -0.09957611 34.39331055 -0.10697937 C35.30765869 -0.10390274 36.22200684 -0.10082611 37.1640625 -0.09765625 C38.37412964 -0.09979378 38.37412964 -0.09979378 39.60864258 -0.10197449 C41.58203125 0.14526367 41.58203125 0.14526367 43.58203125 2.14526367 C43.89453125 5.14526367 43.89453125 5.14526367 43.58203125 8.14526367 C40.4266277 10.24886604 39.65624495 10.39927166 36.05053711 10.41992188 C34.67912819 10.43421989 34.67912819 10.43421989 33.28001404 10.44880676 C31.80336021 10.44743965 31.80336021 10.44743965 30.296875 10.44604492 C28.77883018 10.45247261 28.77883018 10.45247261 27.2301178 10.45903015 C25.0908381 10.46477367 22.95153887 10.46527356 20.81225586 10.4609375 C17.52879825 10.4577726 14.24623711 10.48125392 10.96289062 10.5065918 C8.88671989 10.50886418 6.81054672 10.50956857 4.734375 10.50854492 C3.74791489 10.51775467 2.76145477 10.52696442 1.74510193 10.53645325 C0.83398148 10.53022446 -0.07713898 10.52399567 -1.01586914 10.51757812 C-2.22141197 10.51852226 -2.22141197 10.51852226 -3.4513092 10.51948547 C-4.10030685 10.39599228 -4.7493045 10.27249908 -5.41796875 10.14526367 C-7.41796875 7.14526367 -7.41796875 7.14526367 -7.16796875 4.02026367 C-6.79671875 2.59713867 -6.79671875 2.59713867 -6.41796875 1.14526367 C-4.0594188 -0.0340113 -2.6298016 0.01242609 0 0 Z " fill="#99AAB5" transform="translate(110.41796875,77.854736328125)"/>
<path d="M0 0 C3.26032143 2.32880102 4.80313401 4.29874453 6.625 7.875 C7.12 11.835 7.12 11.835 7.625 15.875 C-3.265 15.875 -14.155 15.875 -25.375 15.875 C-24.2131482 8.90388922 -22.43952826 4.15557917 -16.6875 -0.125 C-10.93976381 -1.86016564 -5.7044689 -1.90148963 0 0 Z " fill="#F8F8F8" transform="translate(377.375,99.125)"/>
<path d="M0 0 C3.46236126 2.39067801 5.74528805 5.0530761 7.625 8.8125 C7.625 11.1225 7.625 13.4325 7.625 15.8125 C-2.935 15.8125 -13.495 15.8125 -24.375 15.8125 C-23.24553246 6.77675966 -23.24553246 6.77675966 -20.5625 3.9375 C-20.06105469 3.38320312 -19.55960938 2.82890625 -19.04296875 2.2578125 C-13.54443846 -2.50672195 -6.62179542 -2.32989098 0 0 Z " fill="#FAFAFA" transform="translate(1028.375,99.1875)"/>
<path d="M0 0 C3.46236126 2.39067801 5.74528805 5.0530761 7.625 8.8125 C7.625 11.1225 7.625 13.4325 7.625 15.8125 C-2.935 15.8125 -13.495 15.8125 -24.375 15.8125 C-23.24553246 6.77675966 -23.24553246 6.77675966 -20.5625 3.9375 C-20.06105469 3.38320312 -19.55960938 2.82890625 -19.04296875 2.2578125 C-13.54443846 -2.50672195 -6.62179542 -2.32989098 0 0 Z " fill="#FAFAFA" transform="translate(648.375,99.1875)"/>
</svg>
