<?xml version="1.0" encoding="UTF-8"?>
<svg version="1.1" xmlns="http://www.w3.org/2000/svg" width="512" height="512">
<path d="M0 0 C1.37622968 -0.00346559 2.75245658 -0.00823616 4.12867779 -0.01418173 C7.87294015 -0.0265976 11.61697039 -0.02056484 15.36123312 -0.01122308 C19.41377535 -0.00439398 23.46627957 -0.01493278 27.51881409 -0.02316284 C35.44264641 -0.03646107 43.3663932 -0.03364005 51.29022879 -0.02492492 C57.7329007 -0.01813381 64.17554873 -0.01723781 70.61822319 -0.02049637 C71.99667706 -0.02118592 71.99667706 -0.02118592 73.40297849 -0.0218894 C75.27017078 -0.02284863 77.13736306 -0.02382127 79.00455534 -0.02480717 C96.48836915 -0.03334948 113.97213567 -0.0235449 131.45594173 -0.00740607 C146.44110538 0.00599829 161.4261993 0.00366579 176.41136169 -0.01016235 C193.83663659 -0.0262348 211.2618701 -0.03252797 228.68715137 -0.02332556 C230.54694712 -0.02236997 232.40674286 -0.02142686 234.26653862 -0.02049637 C235.63892662 -0.01980213 235.63892662 -0.01980213 237.03903963 -0.01909386 C243.47064271 -0.01650914 249.90221944 -0.02086375 256.33381844 -0.02793503 C264.17646856 -0.03636864 272.01902866 -0.03403076 279.86166853 -0.0180928 C283.85914686 -0.01023541 287.85647536 -0.00707502 291.85395241 -0.01704025 C295.51985383 -0.02604039 299.18546782 -0.02096781 302.85134351 -0.0051076 C304.79138188 -0.00021813 306.73144053 -0.00990842 308.67145735 -0.02027929 C324.94426642 0.08798837 337.73964926 4.78361189 349.59031677 16.03329468 C358.13851627 24.81529108 363.59124726 34.27895961 365.51609802 46.48251343 C365.69160656 48.38483383 365.69160656 48.38483383 366.87547302 49.38095093 C366.97135426 50.93715488 366.99735335 52.49771547 366.99572754 54.05686951 C366.99778954 55.57347923 366.99778954 55.57347923 366.99989319 57.12072754 C366.99629791 58.23922089 366.99270264 59.35771423 366.98899841 60.51010132 C366.98914444 61.68067581 366.98929047 62.85125031 366.98944092 64.05729675 C366.98886198 67.27616035 366.98383294 70.49498096 366.97686696 73.71383595 C366.97063259 77.07442492 366.97002956 80.43501466 366.96884155 83.79560852 C366.96572848 90.16337435 366.95751542 96.53112309 366.94749206 102.89888138 C366.93633017 110.14664822 366.93082028 117.39441586 366.92579663 124.64218915 C366.91533279 139.55511927 366.89773382 154.4680334 366.87547302 169.38095093 C368.1967067 169.36474953 368.1967067 169.36474953 369.54463196 169.34822083 C372.86611307 169.31271204 376.1873875 169.2870379 379.50898743 169.26765442 C380.93655108 169.25739089 382.36409368 169.2434 383.7915802 169.22535706 C403.75995734 168.97959646 422.42409457 172.74377859 437.31297302 187.00595093 C448.06419239 197.9511981 451.18952641 211.48254139 451.14289856 226.36026001 C451.14742967 227.43275175 451.15196079 228.50524349 451.1566292 229.61023498 C451.16924018 233.18652064 451.16765495 236.76265337 451.16600037 240.33895874 C451.17198766 242.91029556 451.17879367 245.48163059 451.18635559 248.05296326 C451.20292037 254.30257315 451.20846308 260.55214529 451.20958035 266.80177531 C451.21053296 271.88536001 451.21465387 276.96893234 451.2209816 282.05251312 C451.23858157 296.48726242 451.2478224 310.92198207 451.24632065 325.35674217 C451.24620078 326.52235588 451.24620078 326.52235588 451.24607849 327.71151733 C451.24599673 328.48954947 451.24591497 329.26758161 451.24583073 330.06919047 C451.24501815 342.67284719 451.2641519 355.27638432 451.29235522 367.88000646 C451.32113166 380.84273491 451.33489291 393.80540512 451.33316767 406.7681663 C451.33250542 414.03716891 451.33792521 421.30604612 451.35952377 428.57501984 C451.3797155 435.41396883 451.37901339 442.2526496 451.36449051 449.09161186 C451.36240442 451.59530207 451.36709127 454.09900893 451.37921143 456.60267067 C451.52293943 488.36050224 451.52293943 488.36050224 439.87547302 501.38095093 C431.33265028 509.37945222 422.99895656 512.53996319 411.34123039 512.515172 C410.21053047 512.51870035 410.21053047 512.51870035 409.05698812 512.52229998 C406.52274425 512.52897446 403.98855184 512.52853222 401.45429993 512.52812195 C399.62228731 512.53142153 397.79027543 512.5351473 395.95826447 512.53926343 C390.91709653 512.54928067 385.87594049 512.55299977 380.834764 512.55565274 C375.40036609 512.55955656 369.96597759 512.56913478 364.53158569 512.5778656 C351.40484307 512.59762689 338.27809968 512.60769539 325.15134591 512.61659339 C318.97036926 512.62097648 312.78939348 512.6263432 306.60841751 512.63158226 C286.06306829 512.64859352 265.51771961 512.66308818 244.97236443 512.670331 C239.64091364 512.6722409 234.30946285 512.67415958 228.97801208 512.67611694 C228.31565987 512.67635709 227.65330765 512.67659724 226.97088415 512.67684467 C205.49785532 512.68473687 184.02488174 512.70816774 162.55187703 512.74067289 C139.84350265 512.77498527 117.13516056 512.79468229 94.42675984 512.79797524 C82.05042577 512.80014093 69.67417292 512.80889845 57.29786301 512.83443642 C46.75883665 512.856133 36.21991125 512.86419889 25.68086509 512.85446963 C20.30433122 512.84992208 14.92800568 512.85183791 9.55150032 512.87123108 C4.62641307 512.88884248 -0.29831354 512.88788129 -5.22340451 512.87233379 C-7.00204365 512.86995468 -8.78070763 512.87429698 -10.55930878 512.88616244 C-23.98028816 512.97012783 -34.72434816 511.51983146 -45.12452698 502.38095093 C-45.73038635 501.87950562 -46.33624573 501.3780603 -46.96046448 500.86141968 C-56.38769948 492.40160835 -60.2612011 479.70913042 -61.29180357 467.37977998 C-61.56227165 462.17663469 -61.52823114 456.97259964 -61.50547791 451.76411438 C-61.50894138 450.02062789 -61.51371055 448.27714359 -61.51965964 446.53366381 C-61.53210444 441.77886799 -61.52602917 437.02425438 -61.51670098 432.26945817 C-61.50988399 427.12760944 -61.52040478 421.98579099 -61.52864075 416.84394836 C-61.5419518 406.78562746 -61.53911215 396.72737388 -61.53040282 386.66905039 C-61.52361671 378.49204914 -61.52271357 370.31506669 -61.52597427 362.13806343 C-61.52643397 360.97251124 -61.52689367 359.80695906 -61.5273673 358.60608711 C-61.52832651 356.23800908 -61.52929915 353.86993107 -61.53028508 351.50185306 C-61.53883117 329.31822787 -61.52901688 307.13463992 -61.51288398 284.95102084 C-61.49947975 265.93081939 -61.50181128 246.91067287 -61.51564026 227.89047241 C-61.53170681 205.78251366 -61.53800913 183.67458752 -61.52880347 161.56662375 C-61.52784786 159.20775672 -61.52690474 156.84888969 -61.52597427 154.49002266 C-61.52551145 153.32952721 -61.52504862 152.16903176 -61.52457177 150.97336979 C-61.52198524 142.80897436 -61.52634557 134.64459966 -61.53341293 126.48020744 C-61.54183999 116.52665601 -61.53952236 106.57317552 -61.5235707 96.61963218 C-61.51570452 91.54459189 -61.51256821 86.46966976 -61.52251816 81.39463043 C-61.5314997 76.74307992 -61.5264755 72.09175638 -61.5105855 67.44022626 C-61.50725232 65.7634416 -61.50889855 64.08663751 -61.51621287 62.40986549 C-61.58963129 44.17071705 -58.51008453 29.4775768 -45.43702698 16.06845093 C-32.3060099 3.26653202 -17.99366372 -0.09636152 0 0 Z " fill="#CBD5DC" transform="translate(61.12452697753906,-0.380950927734375)"/>
<path d="M0 0 C1.82963792 -0.00679667 1.82963792 -0.00679667 3.69623822 -0.01373065 C7.07444783 -0.02419205 10.45244434 -0.02570201 13.83065498 -0.02334189 C17.47698797 -0.02293334 21.12328933 -0.03397653 24.76960754 -0.04345703 C31.9106392 -0.06005956 39.05163784 -0.06556624 46.19268719 -0.06668179 C51.99815475 -0.0676326 57.80361143 -0.07174458 63.60907555 -0.07808304 C80.0739622 -0.09569331 96.53882281 -0.10492223 113.00371895 -0.10342209 C113.8910737 -0.10334218 114.77842844 -0.10326227 115.69267273 -0.10317993 C117.02533275 -0.10305729 117.02533275 -0.10305729 118.3849152 -0.10293217 C132.7826863 -0.1021193 147.18035278 -0.12125772 161.57809363 -0.14945666 C176.36680678 -0.17819247 191.15546893 -0.19199658 205.94421071 -0.19026911 C214.24487838 -0.18960546 222.54543637 -0.195087 230.84607887 -0.21662521 C237.91349231 -0.23484618 244.98074634 -0.23917686 252.04817311 -0.22560637 C255.65239065 -0.21908131 259.25630244 -0.21894241 262.8604908 -0.23631287 C266.77204385 -0.25497039 270.68315171 -0.2424769 274.59472656 -0.22705078 C275.72781181 -0.23733791 276.86089706 -0.24762503 278.02831823 -0.25822389 C286.46462182 -0.18472795 292.22137413 1.80473713 299.23783875 6.39242554 C305.93515512 13.39416538 308.14148676 21.47198304 308.22612 30.92367554 C308.23419174 31.78118408 308.24226349 32.63869263 308.25057983 33.52218628 C308.26441383 35.34121689 308.27513905 37.16027339 308.28300476 38.9793396 C308.29447219 40.823819 308.31484001 42.66826661 308.3445282 44.51254272 C308.53226058 56.17921893 308.22147068 65.64688805 302.42533875 76.07992554 C296.01906352 81.82914689 288.4837219 85.38446864 279.88522148 85.40164661 C278.84885579 85.40610446 277.8124901 85.4105623 276.74471939 85.41515523 C275.60758031 85.41497087 274.47044122 85.41478651 273.29884338 85.41459656 C272.08966629 85.41827325 270.8804892 85.42194993 269.63467038 85.42573804 C266.27673281 85.43485757 262.91884408 85.43947296 259.56089878 85.44212735 C255.93974106 85.44603383 252.31859744 85.45561194 248.69744873 85.46434021 C239.95149833 85.48409499 231.20554678 85.49416962 222.45957965 85.503068 C218.33960532 85.50745255 214.21963228 85.51281893 210.09965897 85.51805687 C196.40159561 85.53506823 182.70353304 85.54956201 169.00546074 85.55680561 C165.45140965 85.55871546 161.89735856 85.5606358 158.3433075 85.56259155 C157.45998002 85.56307529 156.57665254 85.56355903 155.66655757 85.56405743 C141.35987115 85.57235628 127.05326839 85.59769115 112.74661849 85.63017223 C98.05402066 85.66325724 83.36146532 85.68125568 68.66883004 85.68444985 C60.4211897 85.68661362 52.17367135 85.69534278 43.92606735 85.72091103 C36.90146154 85.74263775 29.87700734 85.75065878 22.85237174 85.74094424 C19.27031519 85.7364052 15.68857133 85.73826225 12.10655785 85.75770569 C8.2171549 85.77863467 4.32818059 85.76833377 0.43873596 85.75517273 C-1.24689616 85.7716266 -1.24689616 85.7716266 -2.96658146 85.78841287 C-10.91916338 85.72354646 -18.07590014 84.42923528 -24.414505 79.33773804 C-31.35650043 70.54101102 -33.15902511 63.66430127 -33.2504425 52.65414429 C-33.25851425 51.72576248 -33.266586 50.79738068 -33.27490234 49.84086609 C-33.2887029 47.87996262 -33.29944298 45.91903554 -33.30732727 43.95809937 C-33.31885267 41.96128252 -33.33931329 39.96449662 -33.36885071 37.96786499 C-33.41166719 35.07141339 -33.42771457 32.17587365 -33.4379425 29.27914429 C-33.45545059 28.39554733 -33.47295868 27.51195038 -33.49099731 26.60157776 C-33.46542117 19.22178079 -31.45956667 14.10126338 -26.63716125 8.51742554 C-17.98991187 1.1054975 -11.05289303 -0.03003487 0 0 Z " fill="#99AAB5" transform="translate(76.01216125488281,42.732574462890625)"/>
<path d="M0 0 C19.34986859 0.13211918 37.48922746 4.24987881 51.85400391 18.01000977 C62.60522328 28.95525694 65.73055729 42.48660023 65.68392944 57.36431885 C65.68846056 58.43681059 65.69299167 59.50930233 65.69766009 60.61429381 C65.71027107 64.19057948 65.70868583 67.76671221 65.70703125 71.34301758 C65.71301854 73.9143544 65.71982455 76.48568942 65.72738647 79.05702209 C65.74395125 85.30663198 65.74949396 91.55620413 65.75061123 97.80583414 C65.75156384 102.88941885 65.75568475 107.97299117 65.76201248 113.05657196 C65.77961245 127.49132126 65.78885329 141.9260409 65.78735153 156.36080101 C65.78727162 157.13787681 65.78719171 157.91495262 65.78710938 158.71557617 C65.78702761 159.49360831 65.78694585 160.27164044 65.78686161 161.07324931 C65.78604904 173.67690603 65.80518278 186.28044316 65.83338611 198.8840653 C65.86216255 211.84679375 65.87592379 224.80946396 65.87419856 237.77222514 C65.8735363 245.04122775 65.87895609 252.31010496 65.90055466 259.57907867 C65.92074638 266.41802767 65.92004427 273.25670844 65.90552139 280.0956707 C65.9034353 282.59936091 65.90812215 285.10306777 65.92024231 287.60672951 C66.06397031 319.36456107 66.06397031 319.36456107 54.41650391 332.38500977 C45.13932468 341.07107669 36.03029912 343.78139426 23.45166016 343.66235352 C10.20180754 343.00428078 -1.28040534 339.32751065 -10.39599609 329.44750977 C-18.54911191 319.50146338 -19.88552684 310.25108078 -19.83073425 297.6988678 C-19.83314867 296.43092029 -19.83556308 295.16297277 -19.83805066 293.85660261 C-19.84443824 290.3534804 -19.8384163 286.85047453 -19.83028638 283.34736001 C-19.82368938 279.56352975 -19.82866208 275.77971206 -19.83216858 271.99588013 C-19.8372021 264.59176051 -19.8315804 257.18768566 -19.82231828 249.78357161 C-19.81192485 241.1650787 -19.81200468 232.54659542 -19.81249086 223.92809742 C-19.81299111 208.55784977 -19.80383801 193.18762295 -19.78930664 177.81738281 C-19.77520273 162.8915977 -19.76813663 147.96583092 -19.76879883 133.04003906 C-19.76883878 132.11972462 -19.76887874 131.19941018 -19.76891991 130.25120742 C-19.76896026 129.33250397 -19.76900062 128.41380051 -19.76904219 127.46725756 C-19.76973114 110.482163 -19.7638494 93.49707625 -19.75488898 76.51198422 C-19.75186782 70.49857519 -19.75080887 64.48516759 -19.75035667 58.47175789 C-19.74967614 51.1531457 -19.74523354 43.83454667 -19.73602387 36.51594008 C-19.73139263 32.77913929 -19.72836526 29.04235539 -19.72961807 25.30555153 C-19.73090729 21.26443748 -19.7244922 17.2233739 -19.71720886 13.18226624 C-19.71875746 11.98833301 -19.72030607 10.79439979 -19.7219016 9.56428677 C-19.71867715 8.49086008 -19.7154527 7.41743339 -19.71213055 6.31147861 C-19.71107391 4.91055008 -19.71107391 4.91055008 -19.70999593 3.48131996 C-19.34779963 -2.52086822 -5.04289809 0.00050364 0 0 Z " fill="#99A9B4" transform="translate(446.58349609375,168.614990234375)"/>
<path d="M0 0 C1.23546066 -0.00992981 2.47092133 -0.01985962 3.74382019 -0.03009033 C7.10329254 -0.05413369 10.46251895 -0.06917487 13.82204747 -0.07811165 C15.92643917 -0.0840088 18.03080995 -0.09222429 20.13519096 -0.10112 C26.73622458 -0.1283892 33.33720944 -0.14776736 39.93829542 -0.15552378 C47.52885546 -0.16449586 55.11869712 -0.19967388 62.70903879 -0.25752497 C68.59979291 -0.30084921 74.49034537 -0.32093674 80.381257 -0.32360601 C83.88997821 -0.32569374 87.39802041 -0.33732859 90.90657234 -0.37324524 C94.81945863 -0.41253357 98.73145301 -0.40359369 102.64453125 -0.390625 C103.79335785 -0.40905457 104.94218445 -0.42748413 106.12582397 -0.44647217 C113.8316745 -0.36662515 118.35898874 1.38325445 124.25756836 6.32226562 C125.64975586 7.43601563 125.64975586 7.43601563 127.07006836 8.57226562 C132.49051884 15.38654623 133.85315905 22.89969233 133.75927734 31.40258789 C133.76738182 32.83149857 133.76738182 32.83149857 133.77565002 34.28927612 C133.78805295 37.40606747 133.77170366 40.5219198 133.75366211 43.63867188 C133.75381728 45.82242379 133.75530925 48.00617598 133.7580719 50.18992615 C133.75945208 54.75328841 133.74696049 59.31633492 133.72412109 63.87963867 C133.6957211 69.71232515 133.69848368 75.54448816 133.7112112 81.37721348 C133.71818414 85.88209968 133.71036089 90.38686608 133.69795418 94.89173698 C133.69345658 97.04180376 133.693088 99.19188348 133.69701958 101.34195137 C133.69994808 104.35201274 133.68334701 107.36136626 133.66162109 110.37133789 C133.66837357 111.68782066 133.66837357 111.68782066 133.67526245 113.03089905 C133.58530086 120.57797664 132.18170507 128.22320739 126.90600586 133.97851562 C123.4340189 136.80876092 119.37186175 138.6146792 115.25756836 140.32226562 C114.45953796 140.66850983 113.66150757 141.01475403 112.83929443 141.37149048 C107.67102645 142.74341581 102.67808748 142.61709444 97.35229492 142.61279297 C96.15803894 142.61951019 94.96378296 142.62622742 93.7333374 142.63314819 C90.46862268 142.64885955 87.2040609 142.65550145 83.93931293 142.65677977 C81.89523807 142.65820519 79.85118957 142.66248222 77.80712128 142.6677742 C70.66330788 142.68625946 63.51956894 142.69444696 56.37573242 142.69287109 C49.73758704 142.69167103 43.09976749 142.71275042 36.46170449 142.74435842 C30.74596017 142.77059571 25.03032175 142.78123524 19.31451774 142.77996027 C15.90815239 142.7794527 12.50207665 142.78502122 9.09577179 142.80631638 C5.29038236 142.82598675 1.48582371 142.82013274 -2.31958008 142.80810547 C-3.43369263 142.81934448 -4.54780518 142.8305835 -5.69567871 142.84216309 C-14.26929689 142.77356162 -20.83607196 140.82823221 -28.05493164 136.19726562 C-33.00236205 130.90466565 -36.85228228 123.62288389 -36.88287354 116.26364136 C-36.88858368 115.43952255 -36.89429382 114.61540375 -36.900177 113.76631165 C-36.90129486 112.86551376 -36.90241272 111.96471588 -36.90356445 111.03662109 C-36.90852936 110.08503616 -36.91349426 109.13345123 -36.91860962 108.1530304 C-36.93323752 104.99849731 -36.94003557 101.84401458 -36.94555664 98.68945312 C-36.95130915 96.49569701 -36.95706687 94.3019409 -36.96282959 92.10818481 C-36.97334244 87.50311041 -36.97918273 82.89805347 -36.98266602 78.29296875 C-36.98814045 72.40521176 -37.01214493 66.51768723 -37.04063797 60.63000298 C-37.05930845 56.09511656 -37.06447238 51.56028552 -37.06600189 47.02536392 C-37.06902079 44.85574197 -37.07702343 42.68612083 -37.09018707 40.51653671 C-37.10733375 37.47227345 -37.1053458 34.42856994 -37.09887695 31.38427734 C-37.11269913 30.0512986 -37.11269913 30.0512986 -37.12680054 28.69139099 C-37.06812056 19.82970613 -35.08012232 12.6599563 -28.74243164 6.32226562 C-20.64289403 -0.4587426 -10.06195795 0.01961602 0 0 Z " fill="#55ACED" transform="translate(79.742431640625,156.677734375)"/>
<path d="M0 0 C1.12591738 -0.00644889 2.25183475 -0.01289778 3.41187084 -0.0195421 C4.6490121 -0.01644489 5.88615337 -0.01334769 7.16078377 -0.01015663 C8.47487193 -0.01468774 9.7889601 -0.01921886 11.14286911 -0.02388728 C14.79357999 -0.03613903 18.44419937 -0.03585427 22.09492612 -0.03349853 C26.03094542 -0.03309091 29.96693517 -0.0441242 33.90294075 -0.05361366 C41.61541524 -0.07023637 49.32785916 -0.07572377 57.04035006 -0.07683842 C63.30832423 -0.07778826 69.57628829 -0.08189533 75.84425926 -0.08823967 C93.60892196 -0.10585526 111.37356048 -0.115078 129.13823198 -0.11357872 C130.0962066 -0.11349881 131.05418122 -0.1134189 132.04118538 -0.11333656 C133.47989851 -0.11321392 133.47989851 -0.11321392 134.94767655 -0.1130888 C150.49540661 -0.11227573 166.04303982 -0.13141792 181.59074186 -0.1596133 C197.5489395 -0.18832513 213.50708989 -0.20215454 229.46531403 -0.20042574 C238.4271072 -0.19976127 247.38879884 -0.20527864 256.35056877 -0.22678185 C263.98025512 -0.24497125 271.60979391 -0.24935946 279.23949252 -0.235763 C283.13292925 -0.22922206 287.02608274 -0.22915642 290.91949272 -0.2464695 C295.13881051 -0.26503901 299.35746932 -0.2526753 303.57679939 -0.23720741 C305.42581913 -0.2526381 305.42581913 -0.2526381 307.3121928 -0.26838052 C313.6784641 -0.2166144 317.67003488 -0.05991387 322.49577522 4.25726891 C323.09390022 4.75226891 323.69202522 5.24726891 324.30827522 5.75726891 C327.16262337 9.36276131 326.86907534 13.85232753 326.49577522 18.25726891 C325.11959641 22.08697795 323.58899223 24.50392993 320.21106148 26.83167171 C314.69410301 28.94859083 309.45143722 28.67355735 303.59025764 28.64494896 C302.27446063 28.6503345 300.95866362 28.65572003 299.60299397 28.66126877 C295.95675579 28.67572428 292.31074364 28.67147842 288.66449308 28.66410196 C284.72986509 28.65937289 280.79528618 28.67187775 276.8606739 28.68211937 C269.15514014 28.69931724 261.44968788 28.70014542 253.74413991 28.69490647 C247.48193042 28.69086574 241.21974503 28.69230715 234.9575367 28.69765472 C234.06641566 28.69840315 233.17529461 28.69915157 232.2571699 28.69992267 C230.44689949 28.70145414 228.63662908 28.70299248 226.82635868 28.70453764 C209.8496975 28.71826599 192.8730824 28.7128224 175.89642227 28.70135242 C160.36174823 28.69141737 144.82719325 28.70436483 129.29253757 28.72828662 C113.34331122 28.75266191 97.39414036 28.7622895 81.44489574 28.75563389 C72.48984566 28.75213847 63.53488717 28.75439511 54.57985115 28.77188492 C46.95752486 28.78658718 39.3353547 28.78726818 31.71303153 28.76981401 C27.82363693 28.76128569 23.93452146 28.75919888 20.04514122 28.77446556 C15.83029746 28.7908051 11.61613074 28.77620245 7.4012928 28.75847435 C6.16997722 28.76807936 4.93866163 28.77768436 3.67003345 28.78758043 C-2.65484036 28.73264267 -6.76255293 28.64197164 -11.50422478 24.25726891 C-14.37198971 20.14680583 -15.09218099 16.42327287 -14.92609978 11.50726891 C-14.21390271 7.70888453 -12.28283097 4.89694479 -9.50422478 2.25726891 C-6.26008209 0.26848709 -3.77716976 0.00546695 0 0 Z " fill="#99AAB5" transform="translate(57.50422477722168,440.74273109436035)"/>
<path d="M0 0 C1.67451426 -0.00668677 1.67451426 -0.00668677 3.38285708 -0.01350862 C4.61444718 -0.01332426 5.84603727 -0.01313989 7.11494827 -0.01294994 C8.41930934 -0.01662663 9.72367041 -0.02030332 11.06755757 -0.02409142 C14.69577039 -0.03411604 18.32396665 -0.03782895 21.95219135 -0.04048073 C25.86233664 -0.04438238 29.77246882 -0.05396077 33.68260574 -0.0626936 C43.12900145 -0.08246126 52.57539824 -0.09252429 62.02180946 -0.10142139 C66.46892547 -0.10580352 70.91604029 -0.1111705 75.36315536 -0.11641026 C90.14377343 -0.13342233 104.92439074 -0.14791713 119.70501709 -0.155159 C123.54114406 -0.15706893 127.37727103 -0.15898925 131.21339798 -0.16094494 C132.16686203 -0.16142868 133.12032608 -0.16191242 134.10268298 -0.16241082 C149.55279858 -0.17071351 165.00283681 -0.19605454 180.45291862 -0.22852562 C196.31051298 -0.26158183 212.16806799 -0.27960643 228.02569699 -0.28280324 C236.93109385 -0.2849696 245.83637787 -0.29373669 254.74174118 -0.31926441 C262.32493645 -0.34095173 269.90799148 -0.34903154 277.49121425 -0.33929763 C281.36047108 -0.33474727 285.22943842 -0.3366816 289.0986557 -0.35605907 C293.29358147 -0.37688637 297.48786286 -0.36672381 301.68281937 -0.35352612 C302.90548657 -0.36449536 304.12815378 -0.37546461 305.3878715 -0.38676625 C312.03617396 -0.33613642 316.28393647 0.08844687 321.6528511 4.13422108 C325.01879419 7.93169533 326.3317939 10.95811649 326.0356636 16.11078358 C325.16839819 20.69490076 323.16448778 24.05339015 319.30905628 26.81005096 C313.82273646 28.79703484 308.57040011 28.54322049 302.77856827 28.50844288 C301.46614924 28.51241728 300.15373021 28.51639169 298.80154091 28.52048653 C295.1647593 28.53106469 291.52822377 28.52295015 287.89145291 28.51173604 C283.96707989 28.50289039 280.04273894 28.51133856 276.11836624 28.51759815 C268.43320975 28.5270858 260.74814716 28.52048675 253.06299763 28.50833521 C244.11513592 28.49471408 235.16729656 28.49635315 226.21942712 28.49846854 C210.25589096 28.50165833 194.29239942 28.48999093 178.3288765 28.47040272 C162.83472205 28.45139542 147.34061989 28.44431602 131.84645462 28.44989491 C114.97724484 28.45595092 98.10805805 28.45577912 81.23885018 28.44440907 C79.44057691 28.44320177 77.64230365 28.44199578 75.84403038 28.44079113 C74.95922447 28.44018759 74.07441856 28.43958405 73.16280035 28.43896222 C66.92386461 28.435081 60.68493742 28.43547748 54.44600105 28.43737698 C46.8449064 28.43949775 39.24385757 28.43428371 31.64277583 28.41976342 C27.76370891 28.41251351 23.88470879 28.40844751 20.00563622 28.41300678 C15.80374142 28.41782542 11.60202991 28.40718005 7.4001503 28.39491749 C6.16981282 28.39869681 4.93947534 28.40247614 3.67185491 28.40636998 C2.54742988 28.40053779 1.42300485 28.3947056 0.26450634 28.38869667 C-0.70546443 28.38782989 -1.6754352 28.38696312 -2.67479903 28.38607007 C-7.0395262 27.97472717 -9.61873769 26.92333321 -12.5971489 23.69672108 C-15.29275277 19.74958683 -15.85840427 16.23906598 -15.83543015 11.56000233 C-14.93172621 7.07040116 -11.77477258 4.01136987 -8.3471489 1.13422108 C-5.28407558 0.11319664 -3.20743778 0.00593158 0 0 Z " fill="#99AAB5" transform="translate(58.34714889526367,326.86577892303467)"/>
<path d="M0 0 C1.30762991 -0.00467997 2.61525982 -0.00935994 3.96251488 -0.01418173 C7.58595749 -0.02669813 11.20916288 -0.02051854 14.83260632 -0.01122308 C18.7426889 -0.00443552 22.65273069 -0.01491236 26.56280518 -0.02316284 C34.22021782 -0.03650551 41.87754226 -0.03362007 49.53495836 -0.02492492 C55.7580745 -0.01815088 61.98116591 -0.01723044 68.20428467 -0.02049637 C69.08985499 -0.02095607 69.97542531 -0.02141577 70.88783109 -0.0218894 C72.68682751 -0.02284857 74.48582392 -0.02382121 76.28482032 -0.02480717 C93.15561451 -0.03336263 110.02635981 -0.02352449 126.89714599 -0.00740607 C141.37432624 0.00599725 155.85143433 0.0036692 170.32861328 -0.01016235 C187.13887279 -0.02621542 203.94908944 -0.03253864 220.75935555 -0.02332556 C222.5517489 -0.02236991 224.34414227 -0.0214268 226.13653564 -0.02049637 C227.45938727 -0.01980213 227.45938727 -0.01980213 228.80896318 -0.01909386 C235.02489461 -0.01650315 241.24079886 -0.02087672 247.45672607 -0.02793503 C255.03145679 -0.03634718 262.60609424 -0.0340759 270.18081427 -0.0180928 C274.04586006 -0.01020623 277.91075032 -0.007125 281.77579498 -0.01704025 C285.96427229 -0.02762276 290.15235657 -0.0149904 294.34082031 0 C296.17612084 -0.01003825 296.17612084 -0.01003825 298.04849815 -0.02027929 C305.18617934 0.02944747 309.9188165 0.56876182 315.48291016 5.38095093 C318.25000911 8.66047562 318.56877845 11.96140985 318.52197266 16.18173218 C317.8876911 20.14951567 315.82127844 23.40918807 313.17041016 26.38095093 C309.95411102 28.37926758 307.47007448 28.63068666 303.7158308 28.6298399 C302.04355507 28.63673809 302.04355507 28.63673809 300.33749598 28.64377564 C299.11270968 28.63863208 297.88792338 28.63348852 296.62602234 28.62818909 C295.3248904 28.6306035 294.02375846 28.63301792 292.68319827 28.6355055 C289.06860824 28.64192704 285.45412998 28.6358446 281.83954728 28.62774122 C277.94237476 28.62116991 274.04521487 28.62611152 270.14804077 28.62962341 C262.5114202 28.63466908 254.87484289 28.62901881 247.23822769 28.61977311 C238.34631629 28.60939437 229.45441427 28.60945918 220.56249795 28.60994569 C204.69554614 28.61044655 188.82861447 28.60127932 172.96166992 28.58676147 C157.56453077 28.57268076 142.16740935 28.56559039 126.77026367 28.56625366 C125.34849936 28.5663136 125.34849936 28.5663136 123.89801254 28.56637474 C122.9518118 28.5664151 122.00561107 28.56645545 121.03073758 28.56649703 C103.50696976 28.56718713 85.98320948 28.56129436 68.4594441 28.55234381 C62.26154879 28.5493283 56.06365486 28.54826434 49.8657589 28.54781151 C42.31006777 28.54712891 34.75438935 28.54265795 27.19870361 28.5334787 C23.34372195 28.52886551 19.48875651 28.52581344 15.6337719 28.52707291 C11.45441286 28.52837212 7.27510184 28.52191479 3.0957489 28.5146637 C1.87765476 28.5162123 0.65956063 28.5177609 -0.59544545 28.51935643 C-15.36609221 28.47693346 -15.36609221 28.47693346 -18.57177734 26.07626343 C-22.58864838 20.50804909 -23.64923029 16.13432644 -22.82958984 9.38095093 C-18.03990954 -0.56684662 -9.78313876 -0.05350926 0 0 Z " fill="#99AAB5" transform="translate(65.82958984375,383.6190490722656)"/>
<path d="M0 0 C1.0022612 -0.00860046 2.0045224 -0.01720093 3.03715515 -0.02606201 C4.68525681 -0.03245193 4.68525681 -0.03245193 6.36665344 -0.03897095 C7.52466965 -0.04714844 8.68268585 -0.05532593 9.87579346 -0.06375122 C13.71689841 -0.08861017 17.55796638 -0.10512298 21.39912415 -0.11953735 C22.7102952 -0.12486103 24.02146626 -0.13018471 25.37236977 -0.13566971 C30.88406143 -0.15729537 36.39575022 -0.1760297 41.90747356 -0.1872921 C49.79439502 -0.2035161 57.68082266 -0.23665886 65.56755799 -0.29369295 C71.11928989 -0.33246535 76.67089013 -0.35193349 82.22275382 -0.35721266 C85.53534081 -0.36085694 88.84728156 -0.3752977 92.15974998 -0.4053154 C95.86060926 -0.43693811 99.56022573 -0.43700697 103.26118469 -0.42959595 C104.34979797 -0.44600128 105.43841125 -0.46240662 106.56001282 -0.47930908 C113.35020028 -0.42373426 117.90104291 0.70146411 123.1374054 5.15390015 C126.12480632 8.60808247 126.62936882 11.60241849 126.41474915 16.16952515 C125.74306702 20.97536343 123.78575082 23.55891431 120.26571655 26.78924561 C115.24666668 30.23966967 110.04947926 29.85442555 104.14692688 29.8008728 C102.95585327 29.8096344 101.76477966 29.818396 100.53761292 29.8274231 C97.28738077 29.8455993 94.03817469 29.84142514 90.78795886 29.82552767 C87.37813937 29.81281721 83.96838557 29.82462271 80.55856323 29.8324585 C74.8348012 29.84153899 69.11136242 29.82960835 63.38764954 29.80575562 C56.7793825 29.77853388 50.17188659 29.78737167 43.56363815 29.81488764 C37.87845767 29.83760826 32.19350874 29.84076494 26.5082975 29.8276943 C23.11771228 29.81991746 19.72748908 29.81880902 16.33692741 29.83537674 C12.55691751 29.8480752 8.77838894 29.8287189 4.99848938 29.8008728 C3.88091751 29.81099396 2.76334564 29.82111511 1.61190796 29.83154297 C-6.84632991 29.71610704 -6.84632991 29.71610704 -10.60391235 26.73846436 C-12.8625946 24.15390015 -12.8625946 24.15390015 -12.8625946 22.15390015 C-13.5225946 22.15390015 -14.1825946 22.15390015 -14.8625946 22.15390015 C-15.96749578 15.53780514 -16.37625992 11.01000901 -12.8625946 5.15390015 C-8.74826352 1.24528562 -5.59500555 0.03576312 0 0 Z " fill="#9AABB5" transform="translate(257.8625946044922,212.84609985351563)"/>
<path d="M0 0 C1.00652618 -0.00571014 2.01305237 -0.01142029 3.05007935 -0.01730347 C4.1483606 -0.01842133 5.24664185 -0.01953918 6.37820435 -0.02069092 C7.53957916 -0.02565582 8.70095398 -0.03062073 9.89752197 -0.03573608 C13.74281403 -0.05035178 17.58806485 -0.05715828 21.43338013 -0.06268311 C23.42891321 -0.06698105 25.4244463 -0.07127951 27.41997921 -0.07565761 C32.97935193 -0.08746183 38.53871466 -0.0950037 44.09809864 -0.09845281 C51.28044568 -0.1029338 58.46260243 -0.12048725 65.64489162 -0.1494534 C71.20256115 -0.17108714 76.7601772 -0.18115796 82.31788838 -0.18249393 C85.63469805 -0.1835406 88.95128811 -0.19087037 92.26806259 -0.20731354 C95.96898608 -0.22435348 99.66944513 -0.22249861 103.37039185 -0.21600342 C104.46462463 -0.2252182 105.55885742 -0.23443298 106.68624878 -0.243927 C112.19699369 -0.21360571 116.28773821 -0.05472661 121.00369263 3.14044189 C124.93420348 7.49587284 126.3358466 10.10451302 126.20681763 16.05059814 C125.81734751 20.0576465 124.51228082 22.81204432 121.47422981 25.48722076 C115.48461129 29.65148115 110.32532416 29.8431709 103.17507935 29.75567627 C102.01312042 29.76122528 100.8511615 29.76677429 99.6539917 29.77249146 C95.83002928 29.78426011 92.00725889 29.76004116 88.18338013 29.73419189 C85.51874098 29.73248022 82.85414827 29.73244409 80.18951416 29.73431396 C74.61294196 29.73426052 69.03671002 29.71457614 63.4602356 29.68243408 C57.0230726 29.64551033 50.58635431 29.63676477 44.14909923 29.64373159 C37.94043498 29.65004633 31.73192235 29.63926675 25.52328873 29.61976624 C22.88788724 29.61273767 20.25247234 29.60961153 17.61706161 29.61045837 C13.93563343 29.6086604 10.25483595 29.58727816 6.57351685 29.56036377 C5.48556824 29.56329437 4.39761963 29.56622498 3.27670288 29.56924438 C-2.19654236 29.50751832 -6.32989862 29.34191177 -10.99630737 26.14044189 C-15.11115411 20.80226235 -16.46078406 16.8753539 -15.99630737 10.14044189 C-14.29448627 6.48152652 -12.07106327 3.74932568 -8.99630737 1.14044189 C-5.97055049 0.14009806 -3.17284221 0.01080569 0 0 Z " fill="#9AABB5" transform="translate(257.9963073730469,269.85955810546875)"/>
<path d="M0 0 C1.0402533 -0.0071553 2.08050659 -0.01431061 3.15228271 -0.02168274 C4.29313324 -0.02437164 5.43398376 -0.02706055 6.60940552 -0.02983093 C7.81125488 -0.03640213 9.01310425 -0.04297333 10.25137329 -0.04974365 C14.23676807 -0.06948857 18.22212262 -0.08114201 22.20755005 -0.09111023 C23.58032374 -0.09515844 24.95309723 -0.09927538 26.32587051 -0.10346031 C32.77421157 -0.12250448 39.22254123 -0.1367384 45.67090499 -0.14507228 C53.11254563 -0.15484908 60.55388917 -0.181183 67.99542511 -0.22157317 C73.74923418 -0.25173082 79.50295806 -0.26654071 85.25684464 -0.26985329 C88.69273514 -0.27220378 92.12830795 -0.28116358 95.56411362 -0.30631447 C99.39701615 -0.33392008 103.22952722 -0.32976511 107.06253052 -0.32279968 C108.19933258 -0.33560974 109.33613464 -0.3484198 110.50738525 -0.36161804 C118.20676027 -0.31050091 118.20676027 -0.31050091 122.0960083 2.03591919 C125.87805566 6.30736984 127.52770194 9.25141885 127.23880005 15.16279602 C126.6953519 19.10667687 125.45047795 21.84267096 122.4321146 24.49394989 C116.46844549 28.63360359 111.36296009 28.85039878 104.24441528 28.7624054 C103.09381622 28.76795441 101.94321716 28.77350342 100.75775146 28.77922058 C96.97105696 28.79098917 93.18556633 28.76676896 89.3989563 28.74092102 C86.75915074 28.73920924 84.11934348 28.73927629 81.47953796 28.74104309 C75.95423904 28.74098964 70.4292835 28.72130605 64.90408325 28.68916321 C58.52942307 28.65225733 52.15521196 28.64349144 45.78045887 28.65046072 C39.62945535 28.65678001 33.47862941 28.64577115 27.32765388 28.62649536 C24.71819875 28.61947185 22.10873012 28.61634004 19.49926567 28.6171875 C15.85156768 28.61538712 12.20450349 28.59398369 8.55691528 28.5670929 C7.48191269 28.5700235 6.4069101 28.5729541 5.29933167 28.57597351 C-1.75227544 28.49588683 -6.50689846 27.56088718 -12.40963745 23.52217102 C-15.61074257 18.84363277 -15.29948563 13.76274493 -14.40963745 8.33467102 C-12.83389858 4.68182182 -11.36699371 3.26037255 -8.03463745 1.14717102 C-5.06293523 0.15660361 -3.10172363 0.01464401 0 0 Z " fill="#99AAB5" transform="translate(257.0346374511719,156.8528289794922)"/>
<path d="M0 0 C0.66 0.33 1.32 0.66 2 1 C-0.97 3.97 -3.94 6.94 -7 10 C-7 6.04435836 -5.59478606 4.89133304 -3 2 C-2.01 1.34 -1.02 0.68 0 0 Z " fill="#68B2EB" transform="translate(54,161)"/>
<path d="M0 0 C0.66 0.33 1.32 0.66 2 1 C-0.64 3.64 -3.28 6.28 -6 9 C-6 6 -6 6 -3.5625 3.375 C-2.716875 2.59125 -1.87125 1.8075 -1 1 C-0.67 0.67 -0.34 0.34 0 0 Z " fill="#A2B2BC" transform="translate(54,47)"/>
</svg>
